# xmcd
#
# Track frame offsets:
#	150
#	15374
#	36027
#	52468
#	67295
#	80464
#	92445
#	110757
#	120698
#	138509
#
# Disc length: 2042 seconds
#
# Revision: 0
# Processed by: cddbd v1.4PL0 Copyright (c) Steve Scherf et al.
# Submitted via: EasyCDDAExtractor 5.0.5.1
#
DISCID=8b07f80a
DTITLE=Biff Tolbert - A tribute to Frank Sinatra
DYEAR=1900
DGENRE=
TTITLE0=New York, New York
TTITLE1=My way
TTITLE2=I've got you under my skin
TTITLE3=the lady is a tramp
TTITLE4=Strangers in the night
TTITLE5=For once in my life
TTITLE6=Moonlight serenade
TTITLE7=Chicago
TTITLE8=Night and day
TTITLE9=LA is my lady
EXTD=
EXTT0=
EXTT1=
EXTT2=
EXTT3=
EXTT4=
EXTT5=
EXTT6=
EXTT7=
EXTT8=
EXTT9=
PLAYORDER=
